<svg width="70" height="70" viewBox="0 0 70 70" fill="none" xmlns="http://www.w3.org/2000/svg">
<rect width="70" height="70" fill="#EEEEEE"/>
<path d="M16.718 44.1355C15.6153 42.5363 15.088 40.6233 15.2194 38.6983V30.8412C15.0803 28.902 15.5996 26.9722 16.6966 25.3517C17.6886 24.1015 19.3834 23.4799 21.7812 23.4869C24.179 23.4939 25.8025 24.0421 26.6517 25.1317C27.6872 26.4818 28.1925 28.1512 28.0754 29.8355V31.6793H23.6438V29.6783C23.6378 29.1518 23.5913 28.6266 23.5046 28.1069C23.451 27.7307 23.2746 27.3816 23.0015 27.1117C22.833 26.9702 22.6373 26.8631 22.4259 26.7965C22.2145 26.7299 21.9917 26.7053 21.7705 26.724C21.4528 26.6776 21.1282 26.7282 20.8409 26.8688C20.5536 27.0094 20.3175 27.2332 20.1648 27.5098C19.8834 28.2455 19.7595 29.03 19.8009 29.8145V39.7879C19.7521 40.5776 19.8951 41.3674 20.2184 42.0926C20.3728 42.3542 20.602 42.566 20.8777 42.7019C21.1535 42.8377 21.4638 42.8918 21.7705 42.8574C22.0719 42.8991 22.3791 42.8466 22.6482 42.7074C22.9173 42.5682 23.1346 42.3494 23.2691 42.0822C23.5281 41.3451 23.6407 40.5663 23.601 39.7879V37.6926H28.0326V39.505C28.1631 41.2141 27.699 42.9162 26.716 44.3345C25.774 45.4869 24.1469 46.0526 21.8347 46.0526C19.5226 46.0526 17.7135 45.4241 16.718 44.1355Z" fill="#111111"/>
<path d="M33.8337 23.9474H38.9618L43.2894 45.5921H39.0268L38.2586 40.8097H34.6667L33.8012 45.5612H29.4736L33.8337 23.9474ZM37.7826 38.0886L36.4194 29.3895L35.067 38.0886H37.7826Z" fill="#111111"/>
<path d="M46.3086 27.209H42.8289V23.9474H54.342V27.209H50.9053V45.5921H46.2978L46.3086 27.209Z" fill="#111111"/>
</svg>
